<mxfile host="app.diagrams.net" modified="2023-08-15T13:49:47.818Z" agent="Mozilla/5.0 (Windows NT 10.0; Win64; x64) AppleWebKit/537.36 (KHTML, like Gecko) Chrome/115.0.0.0 Safari/537.36" etag="z3i2mQmRFlO1pBBGzkHz" version="21.6.8" type="github">
  <diagram id="C5RBs43oDa-KdzZeNtuy" name="Page-1">
    <mxGraphModel dx="753" dy="403" grid="1" gridSize="10" guides="1" tooltips="1" connect="1" arrows="1" fold="1" page="1" pageScale="1" pageWidth="827" pageHeight="1169" math="0" shadow="0">
      <root>
        <mxCell id="WIyWlLk6GJQsqaUBKTNV-0" />
        <mxCell id="WIyWlLk6GJQsqaUBKTNV-1" parent="WIyWlLk6GJQsqaUBKTNV-0" />
        <mxCell id="KdbOnUZ6DDAxAcTH2BAz-52" value="Vaga" style="rounded=1;arcSize=10;whiteSpace=wrap;html=1;align=center;" vertex="1" parent="WIyWlLk6GJQsqaUBKTNV-1">
          <mxGeometry x="449" y="405" width="100" height="40" as="geometry" />
        </mxCell>
        <mxCell id="KdbOnUZ6DDAxAcTH2BAz-82" style="rounded=0;orthogonalLoop=1;jettySize=auto;html=1;exitX=1;exitY=1;exitDx=0;exitDy=0;entryX=0;entryY=0;entryDx=0;entryDy=0;endArrow=none;endFill=0;" edge="1" parent="WIyWlLk6GJQsqaUBKTNV-1" source="KdbOnUZ6DDAxAcTH2BAz-53" target="KdbOnUZ6DDAxAcTH2BAz-81">
          <mxGeometry relative="1" as="geometry" />
        </mxCell>
        <mxCell id="KdbOnUZ6DDAxAcTH2BAz-53" value="Cliente Mensalista" style="rounded=1;arcSize=10;whiteSpace=wrap;html=1;align=center;" vertex="1" parent="WIyWlLk6GJQsqaUBKTNV-1">
          <mxGeometry x="269" y="475" width="100" height="40" as="geometry" />
        </mxCell>
        <mxCell id="KdbOnUZ6DDAxAcTH2BAz-72" style="rounded=0;orthogonalLoop=1;jettySize=auto;html=1;exitX=1;exitY=1;exitDx=0;exitDy=0;entryX=0;entryY=0;entryDx=0;entryDy=0;endArrow=none;endFill=0;" edge="1" parent="WIyWlLk6GJQsqaUBKTNV-1" source="KdbOnUZ6DDAxAcTH2BAz-54" target="KdbOnUZ6DDAxAcTH2BAz-70">
          <mxGeometry relative="1" as="geometry" />
        </mxCell>
        <mxCell id="KdbOnUZ6DDAxAcTH2BAz-54" value="Cliente avulso" style="rounded=1;arcSize=10;whiteSpace=wrap;html=1;align=center;" vertex="1" parent="WIyWlLk6GJQsqaUBKTNV-1">
          <mxGeometry x="259" y="335" width="100" height="40" as="geometry" />
        </mxCell>
        <mxCell id="KdbOnUZ6DDAxAcTH2BAz-67" style="edgeStyle=orthogonalEdgeStyle;rounded=0;orthogonalLoop=1;jettySize=auto;html=1;exitX=0.5;exitY=1;exitDx=0;exitDy=0;entryX=0.25;entryY=0;entryDx=0;entryDy=0;startArrow=none;startFill=0;endArrow=none;endFill=0;" edge="1" parent="WIyWlLk6GJQsqaUBKTNV-1" source="KdbOnUZ6DDAxAcTH2BAz-55" target="KdbOnUZ6DDAxAcTH2BAz-54">
          <mxGeometry relative="1" as="geometry" />
        </mxCell>
        <mxCell id="KdbOnUZ6DDAxAcTH2BAz-55" value="Marca" style="ellipse;whiteSpace=wrap;html=1;align=left;spacingLeft=15;" vertex="1" parent="WIyWlLk6GJQsqaUBKTNV-1">
          <mxGeometry x="279" y="295" width="10" height="10" as="geometry" />
        </mxCell>
        <mxCell id="KdbOnUZ6DDAxAcTH2BAz-66" style="edgeStyle=orthogonalEdgeStyle;rounded=0;orthogonalLoop=1;jettySize=auto;html=1;exitX=0.5;exitY=1;exitDx=0;exitDy=0;entryX=0.347;entryY=-0.011;entryDx=0;entryDy=0;entryPerimeter=0;endArrow=none;endFill=0;" edge="1" parent="WIyWlLk6GJQsqaUBKTNV-1" source="KdbOnUZ6DDAxAcTH2BAz-60" target="KdbOnUZ6DDAxAcTH2BAz-54">
          <mxGeometry relative="1" as="geometry">
            <Array as="points">
              <mxPoint x="294" y="335" />
            </Array>
          </mxGeometry>
        </mxCell>
        <mxCell id="KdbOnUZ6DDAxAcTH2BAz-60" value="Cor" style="ellipse;whiteSpace=wrap;html=1;align=left;spacingLeft=15;" vertex="1" parent="WIyWlLk6GJQsqaUBKTNV-1">
          <mxGeometry x="289" y="305" width="10" height="10" as="geometry" />
        </mxCell>
        <mxCell id="KdbOnUZ6DDAxAcTH2BAz-65" style="edgeStyle=orthogonalEdgeStyle;rounded=0;orthogonalLoop=1;jettySize=auto;html=1;exitX=0.5;exitY=1;exitDx=0;exitDy=0;entryX=0.45;entryY=0.032;entryDx=0;entryDy=0;entryPerimeter=0;endArrow=none;endFill=0;" edge="1" parent="WIyWlLk6GJQsqaUBKTNV-1" source="KdbOnUZ6DDAxAcTH2BAz-61" target="KdbOnUZ6DDAxAcTH2BAz-54">
          <mxGeometry relative="1" as="geometry" />
        </mxCell>
        <mxCell id="KdbOnUZ6DDAxAcTH2BAz-61" value="Placa" style="ellipse;whiteSpace=wrap;html=1;align=left;spacingLeft=15;" vertex="1" parent="WIyWlLk6GJQsqaUBKTNV-1">
          <mxGeometry x="299" y="315" width="10" height="10" as="geometry" />
        </mxCell>
        <mxCell id="KdbOnUZ6DDAxAcTH2BAz-75" style="rounded=0;orthogonalLoop=1;jettySize=auto;html=1;exitX=0.5;exitY=1;exitDx=0;exitDy=0;entryX=0.5;entryY=0;entryDx=0;entryDy=0;endArrow=none;endFill=0;" edge="1" parent="WIyWlLk6GJQsqaUBKTNV-1" source="KdbOnUZ6DDAxAcTH2BAz-62" target="KdbOnUZ6DDAxAcTH2BAz-70">
          <mxGeometry relative="1" as="geometry" />
        </mxCell>
        <mxCell id="KdbOnUZ6DDAxAcTH2BAz-62" value="Hora&lt;br&gt;Entrada" style="ellipse;whiteSpace=wrap;html=1;align=left;spacingLeft=15;" vertex="1" parent="WIyWlLk6GJQsqaUBKTNV-1">
          <mxGeometry x="389" y="335" width="10" height="10" as="geometry" />
        </mxCell>
        <mxCell id="KdbOnUZ6DDAxAcTH2BAz-74" style="rounded=0;orthogonalLoop=1;jettySize=auto;html=1;exitX=0.5;exitY=0;exitDx=0;exitDy=0;entryX=0.5;entryY=1;entryDx=0;entryDy=0;endArrow=none;endFill=0;" edge="1" parent="WIyWlLk6GJQsqaUBKTNV-1" source="KdbOnUZ6DDAxAcTH2BAz-63" target="KdbOnUZ6DDAxAcTH2BAz-70">
          <mxGeometry relative="1" as="geometry" />
        </mxCell>
        <mxCell id="KdbOnUZ6DDAxAcTH2BAz-63" value="Hora&lt;br&gt;&lt;div style=&quot;&quot;&gt;&lt;span style=&quot;background-color: initial;&quot;&gt;Saída&lt;/span&gt;&lt;/div&gt;" style="ellipse;whiteSpace=wrap;html=1;align=left;spacingLeft=15;" vertex="1" parent="WIyWlLk6GJQsqaUBKTNV-1">
          <mxGeometry x="389" y="455" width="10" height="10" as="geometry" />
        </mxCell>
        <mxCell id="KdbOnUZ6DDAxAcTH2BAz-64" value="Valor" style="ellipse;whiteSpace=wrap;html=1;align=left;spacingLeft=15;" vertex="1" parent="WIyWlLk6GJQsqaUBKTNV-1">
          <mxGeometry x="459" y="365" width="10" height="10" as="geometry" />
        </mxCell>
        <mxCell id="KdbOnUZ6DDAxAcTH2BAz-73" style="rounded=0;orthogonalLoop=1;jettySize=auto;html=1;exitX=1;exitY=1;exitDx=0;exitDy=0;entryX=0;entryY=0.5;entryDx=0;entryDy=0;endArrow=none;endFill=0;" edge="1" parent="WIyWlLk6GJQsqaUBKTNV-1" source="KdbOnUZ6DDAxAcTH2BAz-70" target="KdbOnUZ6DDAxAcTH2BAz-52">
          <mxGeometry relative="1" as="geometry" />
        </mxCell>
        <mxCell id="KdbOnUZ6DDAxAcTH2BAz-76" style="rounded=0;orthogonalLoop=1;jettySize=auto;html=1;exitX=1;exitY=0;exitDx=0;exitDy=0;entryX=0;entryY=1;entryDx=0;entryDy=0;endArrow=none;endFill=0;" edge="1" parent="WIyWlLk6GJQsqaUBKTNV-1" source="KdbOnUZ6DDAxAcTH2BAz-70" target="KdbOnUZ6DDAxAcTH2BAz-64">
          <mxGeometry relative="1" as="geometry" />
        </mxCell>
        <mxCell id="KdbOnUZ6DDAxAcTH2BAz-70" value="Estaciona" style="shape=rhombus;perimeter=rhombusPerimeter;whiteSpace=wrap;html=1;align=center;" vertex="1" parent="WIyWlLk6GJQsqaUBKTNV-1">
          <mxGeometry x="349" y="375" width="90" height="50" as="geometry" />
        </mxCell>
        <mxCell id="KdbOnUZ6DDAxAcTH2BAz-84" style="rounded=0;orthogonalLoop=1;jettySize=auto;html=1;exitX=0;exitY=0.5;exitDx=0;exitDy=0;entryX=1;entryY=0.5;entryDx=0;entryDy=0;endArrow=none;endFill=0;" edge="1" parent="WIyWlLk6GJQsqaUBKTNV-1" source="KdbOnUZ6DDAxAcTH2BAz-78" target="KdbOnUZ6DDAxAcTH2BAz-81">
          <mxGeometry relative="1" as="geometry" />
        </mxCell>
        <mxCell id="KdbOnUZ6DDAxAcTH2BAz-78" value="Hora&lt;br&gt;Entrada" style="ellipse;whiteSpace=wrap;html=1;align=left;spacingLeft=15;" vertex="1" parent="WIyWlLk6GJQsqaUBKTNV-1">
          <mxGeometry x="519" y="520" width="10" height="10" as="geometry" />
        </mxCell>
        <mxCell id="KdbOnUZ6DDAxAcTH2BAz-79" style="rounded=0;orthogonalLoop=1;jettySize=auto;html=1;exitX=0.5;exitY=0;exitDx=0;exitDy=0;entryX=0.5;entryY=1;entryDx=0;entryDy=0;endArrow=none;endFill=0;" edge="1" parent="WIyWlLk6GJQsqaUBKTNV-1" source="KdbOnUZ6DDAxAcTH2BAz-80" target="KdbOnUZ6DDAxAcTH2BAz-81">
          <mxGeometry relative="1" as="geometry">
            <mxPoint x="414" y="585" as="targetPoint" />
          </mxGeometry>
        </mxCell>
        <mxCell id="KdbOnUZ6DDAxAcTH2BAz-80" value="Hora&lt;br&gt;&lt;div style=&quot;&quot;&gt;&lt;span style=&quot;background-color: initial;&quot;&gt;Saída&lt;/span&gt;&lt;/div&gt;" style="ellipse;whiteSpace=wrap;html=1;align=left;spacingLeft=15;" vertex="1" parent="WIyWlLk6GJQsqaUBKTNV-1">
          <mxGeometry x="449" y="575" width="10" height="10" as="geometry" />
        </mxCell>
        <mxCell id="KdbOnUZ6DDAxAcTH2BAz-85" style="rounded=0;orthogonalLoop=1;jettySize=auto;html=1;exitX=1;exitY=0;exitDx=0;exitDy=0;entryX=0.5;entryY=1;entryDx=0;entryDy=0;endArrow=none;endFill=0;" edge="1" parent="WIyWlLk6GJQsqaUBKTNV-1" source="KdbOnUZ6DDAxAcTH2BAz-81" target="KdbOnUZ6DDAxAcTH2BAz-52">
          <mxGeometry relative="1" as="geometry" />
        </mxCell>
        <mxCell id="KdbOnUZ6DDAxAcTH2BAz-81" value="Estaciona" style="shape=rhombus;perimeter=rhombusPerimeter;whiteSpace=wrap;html=1;align=center;" vertex="1" parent="WIyWlLk6GJQsqaUBKTNV-1">
          <mxGeometry x="409" y="500" width="90" height="50" as="geometry" />
        </mxCell>
        <mxCell id="KdbOnUZ6DDAxAcTH2BAz-89" value="" style="rounded=0;orthogonalLoop=1;jettySize=auto;html=1;endArrow=none;endFill=0;" edge="1" parent="WIyWlLk6GJQsqaUBKTNV-1" source="KdbOnUZ6DDAxAcTH2BAz-86" target="KdbOnUZ6DDAxAcTH2BAz-53">
          <mxGeometry relative="1" as="geometry" />
        </mxCell>
        <mxCell id="KdbOnUZ6DDAxAcTH2BAz-86" value="Nome" style="ellipse;whiteSpace=wrap;html=1;align=left;spacingLeft=15;" vertex="1" parent="WIyWlLk6GJQsqaUBKTNV-1">
          <mxGeometry x="314" y="540" width="10" height="10" as="geometry" />
        </mxCell>
        <mxCell id="KdbOnUZ6DDAxAcTH2BAz-93" style="rounded=0;orthogonalLoop=1;jettySize=auto;html=1;exitX=1;exitY=0;exitDx=0;exitDy=0;entryX=0;entryY=1;entryDx=0;entryDy=0;endArrow=none;endFill=0;" edge="1" parent="WIyWlLk6GJQsqaUBKTNV-1" source="KdbOnUZ6DDAxAcTH2BAz-90" target="KdbOnUZ6DDAxAcTH2BAz-53">
          <mxGeometry relative="1" as="geometry" />
        </mxCell>
        <mxCell id="KdbOnUZ6DDAxAcTH2BAz-90" value="Valor&lt;br&gt;Mensal" style="ellipse;whiteSpace=wrap;html=1;align=left;spacingLeft=15;" vertex="1" parent="WIyWlLk6GJQsqaUBKTNV-1">
          <mxGeometry x="239" y="540" width="10" height="10" as="geometry" />
        </mxCell>
        <mxCell id="KdbOnUZ6DDAxAcTH2BAz-95" style="rounded=0;orthogonalLoop=1;jettySize=auto;html=1;exitX=0;exitY=1;exitDx=0;exitDy=0;entryX=1;entryY=0;entryDx=0;entryDy=0;endArrow=none;endFill=0;" edge="1" parent="WIyWlLk6GJQsqaUBKTNV-1" source="KdbOnUZ6DDAxAcTH2BAz-94" target="KdbOnUZ6DDAxAcTH2BAz-52">
          <mxGeometry relative="1" as="geometry" />
        </mxCell>
        <mxCell id="KdbOnUZ6DDAxAcTH2BAz-94" value="Número" style="ellipse;whiteSpace=wrap;html=1;align=left;spacingLeft=15;" vertex="1" parent="WIyWlLk6GJQsqaUBKTNV-1">
          <mxGeometry x="569" y="385" width="10" height="10" as="geometry" />
        </mxCell>
        <mxCell id="KdbOnUZ6DDAxAcTH2BAz-97" value="" style="edgeStyle=orthogonalEdgeStyle;rounded=0;orthogonalLoop=1;jettySize=auto;html=1;endArrow=none;endFill=0;" edge="1" parent="WIyWlLk6GJQsqaUBKTNV-1" source="KdbOnUZ6DDAxAcTH2BAz-96" target="KdbOnUZ6DDAxAcTH2BAz-52">
          <mxGeometry relative="1" as="geometry" />
        </mxCell>
        <mxCell id="KdbOnUZ6DDAxAcTH2BAz-96" value="Status" style="ellipse;whiteSpace=wrap;html=1;align=left;spacingLeft=15;" vertex="1" parent="WIyWlLk6GJQsqaUBKTNV-1">
          <mxGeometry x="579" y="420" width="10" height="10" as="geometry" />
        </mxCell>
      </root>
    </mxGraphModel>
  </diagram>
</mxfile>
